<svg width="197" height="240" viewBox="0 0 197 240" fill="none" xmlns="http://www.w3.org/2000/svg">
<path d="M91.2783 239.973C40.5539 236.701 6.80976 204.666 0 127.027C10.6224 139.222 20.9894 147.977 30.4228 144.528C19.2796 104.613 23.8882 79.29 35.8372 60.7572C53.3087 101.419 103.493 133.788 181.712 172.868C191.037 221.165 163.935 232.131 133.778 239.973C171.246 217.519 104.348 188.59 63.3416 148.282C44.6418 174.804 62.9387 206.661 91.2685 239.973H91.2783Z" fill="#2E368F"/>
<path d="M57.2494 29.1847C41.0456 77.649 147.358 149.156 184.964 156.929C185.662 157.077 186.242 156.516 185.76 155.996L152.733 119.716C152.458 119.412 152.557 118.94 152.92 118.763C173.87 108.327 189.308 95.7101 196.825 79.9484C197.336 78.8675 196.442 77.6588 195.233 77.8357C169.222 81.5305 144.332 83.7021 129.425 72.4017C129.346 72.3427 129.287 72.2641 129.238 72.1855C116.936 49.0244 115.54 25.4507 124.502 1.48384C124.836 0.589632 123.932 -0.284932 123.038 0.0884745C107.512 6.55431 93.9907 24.5761 82.0712 51.7562C81.5504 52.9452 80.096 53.6036 78.8481 53.2203C65.6314 49.221 58.9101 41.4286 59.1656 29.8038C59.1853 28.772 57.5737 28.2119 57.2494 29.1946V29.1847Z" fill="#2E368F"/>
</svg>
