<svg width="187" height="327" viewBox="0 0 187 327" fill="none" xmlns="http://www.w3.org/2000/svg">
<path d="M40.4541 323.603C54.3271 323.603 65.5734 312.357 65.5734 298.484C65.5734 284.611 54.3271 273.364 40.4541 273.364C26.5811 273.364 15.3348 284.611 15.3348 298.484C15.3348 312.357 26.5811 323.603 40.4541 323.603Z" stroke="#2E368F" stroke-width="4.86" stroke-miterlimit="10"/>
<path d="M78.4264 323.603C92.2994 323.603 103.546 312.357 103.546 298.484C103.546 284.611 92.2994 273.364 78.4264 273.364C64.5534 273.364 53.3071 284.611 53.3071 298.484C53.3071 312.357 64.5534 323.603 78.4264 323.603Z" stroke="#2E368F" stroke-width="4.86" stroke-miterlimit="10"/>
<path d="M115.821 323.603C129.694 323.603 140.94 312.357 140.94 298.484C140.94 284.611 129.694 273.364 115.821 273.364C101.948 273.364 90.7015 284.611 90.7015 298.484C90.7015 312.357 101.948 323.603 115.821 323.603Z" stroke="#2E368F" stroke-width="4.86" stroke-miterlimit="10"/>
<path d="M153.085 323.603C166.958 323.603 178.204 312.357 178.204 298.484C178.204 284.611 166.958 273.364 153.085 273.364C139.212 273.364 127.966 284.611 127.966 298.484C127.966 312.357 139.212 323.603 153.085 323.603Z" stroke="#2E368F" stroke-width="4.86" stroke-miterlimit="10"/>
<path d="M58.6054 291.656C72.4783 291.656 83.7246 280.41 83.7246 266.537C83.7246 252.664 72.4783 241.417 58.6054 241.417C44.7324 241.417 33.4861 252.664 33.4861 266.537C33.4861 280.41 44.7324 291.656 58.6054 291.656Z" stroke="#2E368F" stroke-width="4.86" stroke-miterlimit="10"/>
<path d="M133.954 291.656C147.827 291.656 159.073 280.41 159.073 266.537C159.073 252.664 147.827 241.417 133.954 241.417C120.081 241.417 108.834 252.664 108.834 266.537C108.834 280.41 120.081 291.656 133.954 291.656Z" stroke="#2E368F" stroke-width="4.86" stroke-miterlimit="10"/>
<path d="M86.6442 227.79C38.4951 224.684 6.46404 194.276 0 120.578C10.0832 132.154 19.9238 140.465 28.8783 137.191C18.3008 99.3018 22.6754 75.2646 34.0178 57.6727C50.6023 96.2703 98.2384 126.995 172.486 164.091C181.338 209.937 155.613 220.346 126.986 227.79C162.552 206.476 99.0499 179.016 60.1258 140.754C42.3754 165.929 59.7434 196.169 86.6349 227.79H86.6442Z" fill="#2E368F"/>
<path d="M54.3429 27.703C38.9617 73.7068 139.877 141.584 175.574 148.962C176.236 149.102 176.786 148.57 176.329 148.076L144.979 113.638C144.718 113.349 144.811 112.901 145.157 112.734C165.043 102.828 179.697 90.851 186.832 75.8895C187.317 74.8635 186.469 73.7161 185.321 73.884C160.631 77.3912 137.004 79.4526 122.854 68.7259C122.78 68.6699 122.724 68.5953 122.677 68.5207C110.999 46.5355 109.674 24.1585 118.181 1.4085C118.498 0.559683 117.64 -0.27048 116.791 0.083969C102.054 6.22154 89.2188 23.3284 77.9044 49.1286C77.4101 50.2572 76.0296 50.8822 74.845 50.5184C62.2994 46.722 55.9193 39.3252 56.1618 28.2907C56.1804 27.3113 54.6507 26.7796 54.3429 27.7124V27.703Z" fill="#2E368F"/>
</svg>
